General
Complete name                            : D:$ COMPARTIR EN TORRENT-EMULE $CINE NEGROAÑOS 301931-Las calles de la ciudad_ESPÑ_ferdy45.avi
Format                                   : AVI
Format/Info                              : Audio Video Interleave
File size                                : 904 MiB
Duration                                 : 1h 22mn
Overall bit rate                         : 1 537 Kbps
Writing application                      : VirtualDubMod 1.5.10.2 (build 2540/release)
Writing library                          : VirtualDubMod build 2540/release

Video
ID                                       : 0
Format                                   : MPEG-4 Visual
Format settings, BVOP                    : No
Format settings, QPel                    : No
Format settings, GMC                     : No warppoints
Format settings, Matrix                  : Default (H.263)
Codec ID                                 : DX50
Codec ID/Hint                            : DivX 5
Duration                                 : 1h 22mn
Bit rate                                 : 1 399 Kbps
Width                                    : 512 pixels
Height                                   : 384 pixels
Display aspect ratio                     : 4:3
Frame rate                               : 25.000 fps
Color space                              : YUV
Chroma subsampling                       : 4:2:0
Bit depth                                : 8 bits
Scan type                                : Progressive
Compression mode                         : Lossy
Bits/(Pixel*Frame)                       : 0.285
Stream size                              : 823 MiB (91%)
Writing library                          : DivX 0985

Audio
ID                                       : 1
Format                                   : MPEG Audio
Format version                           : Version 1
Format profile                           : Layer 3
Codec ID                                 : 55
Codec ID/Hint                            : MP3
Duration                                 : 1h 22mn
Bit rate mode                            : Constant
Bit rate                                 : 128 Kbps
Channel(s)                               : 1 channel
Sampling rate                            : 44.1 KHz
Compression mode                         : Lossy
Delay relative to video                  : 26ms
Stream size                              : 75.3 MiB (8%)
Alignment                                : Split accross interleaves
Interleave, duration                     : 40 ms (1.00 video frame)
Interleave, preload duration             : 500 ms
